<svg version="1.1" xmlns="http://www.w3.org/2000/svg" width="513.025px" height="181px" viewBox="0 0 513.025 181" >
<g id="logo-text" fill="#fff">
	<path d="M152.264,89.083h6.806v56.253h-6.806V89.083z M167.024,115.487l22.468,29.85h-8.61l-21.484-29.768l21.648-26.486h8.61L167.024,115.487z"/>
	<path d="M226.408,146.894c-2.788-0.902-4.838-3.115-5.576-5.986c-3.936,3.938-7.134,5.494-11.808,5.494c-10.086,0-13.12-6.148-13.12-11.643c0-9.268,7.954-14.68,21.648-14.68c0.902,0,1.558,0,2.87,0.082v-2.869c0-3.607-0.164-5.084-1.312-6.396c-1.312-1.477-2.952-2.213-5.494-2.213c-4.592,0-10.414,2.459-13.038,4.838l-3.198-4.592c5.412-3.609,11.234-5.494,17.138-5.494c5.658,0,9.594,2.213,11.316,6.395c0.902,2.215,0.984,5.33,0.902,9.021l-0.328,13.447c-0.164,6.643,0.246,8.365,3.28,10.004L226.408,146.894z M217.06,124.427c-10.332,0-14.022,3.525-14.022,9.758c0,4.838,2.378,7.461,7.052,7.461c4.182,0,8.036-2.541,9.922-6.395l0.246-10.66C219.438,124.509,217.962,124.427,217.06,124.427"/>
	<path d="M258.772,110.649c-0.409-0.164-1.147-0.328-1.805-0.328c-2.459,0-4.919,1.066-6.805,2.953c-1.886,1.885-2.378,3.115-2.378,6.477v25.586h-6.396v-31.488c0-5.33-1.148-8.119-1.394-8.693l6.396-1.721c0.328,0.654,1.558,3.607,1.312,6.641c2.952-4.182,7.298-6.805,11.479-6.805c0.985,0,1.968,0.328,2.214,0.41L258.772,110.649z"/>
	<path d="M287.783,109.337h-8.529v26.322c0,4.512,1.23,6.068,5.248,6.068c1.805,0,2.871-0.246,4.02-0.82l0.9,4.102c-2.049,1.064-4.346,1.639-7.215,1.639c-2.133,0-3.771-0.41-5.33-1.146c-2.871-1.395-3.936-4.02-3.936-8.119v-28.045h-5.33v-4.838h5.33c0-3.525,0.492-9.02,0.656-10.332l6.723-1.475c-0.164,1.311-0.82,6.969-0.82,11.807h10.25L287.783,109.337z"/>
	<path d="M317.695,145.747h-6.314l-14.678-40.92l6.561-1.393l9.512,28.125c0.984,2.953,1.805,6.232,1.969,6.971h0.164c0.164-0.656,0.818-3.607,1.967-6.888l9.348-27.144h6.807L317.695,145.747z"/>
	<path d="M346.451,125.982v0.985c0,3.854,0.492,6.806,1.887,8.938c2.297,3.527,6.068,5.002,10.168,5.002c3.936,0,7.135-1.229,10.004-3.854l2.461,4.1c-3.609,3.281-8.529,5.084-13.777,5.084c-11.316,0-18.121-8.199-18.121-21.729c0-6.889,1.475-11.316,4.919-15.416c3.28-3.855,7.298-5.658,12.218-5.658c4.43,0,8.282,1.557,11.07,4.428c3.527,3.607,4.674,7.461,4.674,17.219v0.901H346.451z M363.262,112.044c-1.396-2.215-4.264-3.607-7.379-3.607c-5.822,0-9.104,4.264-9.432,12.709h18.697C365.066,116.718,364.491,114.013,363.262,112.044"/>
	<path d="M401.352,110.649c-0.41-0.164-1.148-0.328-1.805-0.328c-2.459,0-4.92,1.066-6.805,2.953c-1.887,1.885-2.379,3.115-2.379,6.477v25.586h-6.396v-31.488c0-5.33-1.148-8.119-1.393-8.693l6.395-1.721c0.328,0.654,1.559,3.607,1.312,6.641c2.953-4.182,7.299-6.805,11.48-6.805c0.984,0,1.969,0.328,2.213,0.41L401.352,110.649z"/>
	<path d="M412.592,145.337v-50.35c0-4.755-0.82-7.79-1.066-8.363l6.396-1.23c0.246,0.656,1.066,4.099,1.066,9.675v50.268H412.592z M438.012,145.337l-18.777-23.125l15.58-17.713h8.037l-16.072,17.713l19.762,23.125H438.012z"/>
	<path d="M458.02,125.982v0.985c0,3.854,0.492,6.806,1.887,8.938c2.297,3.527,6.068,5.002,10.168,5.002c3.936,0,7.135-1.229,10.004-3.854l2.461,4.1c-3.609,3.281-8.529,5.084-13.777,5.084c-11.316,0-18.121-8.199-18.121-21.729c0-6.889,1.475-11.316,4.92-15.416c3.279-3.855,7.297-5.658,12.217-5.658c4.43,0,8.283,1.557,11.07,4.428c3.527,3.607,4.674,7.461,4.674,17.219v0.901H458.02z M474.83,112.044c-1.395-2.215-4.264-3.607-7.379-3.607c-5.822,0-9.104,4.264-9.432,12.709h18.697C476.635,116.718,476.061,114.013,474.83,112.044"/>
	<path d="M511.057,109.337h-8.527v26.322c0,4.512,1.23,6.068,5.248,6.068c1.805,0,2.871-0.246,4.018-0.82l0.902,4.102c-2.049,1.064-4.346,1.639-7.215,1.639c-2.133,0-3.773-0.41-5.33-1.146c-2.871-1.395-3.938-4.02-3.938-8.119v-28.045h-5.33v-4.838h5.33c0-3.525,0.492-9.02,0.656-10.332l6.725-1.475c-0.164,1.311-0.82,6.969-0.82,11.807h10.25L511.057,109.337z"/>
</g>
<g id="logo-visual">
	<g id="logo-visual-border" fill="#fff">
		<path d="M114.46,0H9.538C4.272,0,0.002,4.271,0.002,9.54v64.353c8.235-6.266,18.54-15.03,37.132-10.44c16.02,3.954,19.513,16.307,44.853,30.338c15.513,8.59,30.067,1.961,42.013-4.978V9.54C124,4.271,119.726,0,114.46,0"/>
		<path d="M90.177,122.5c-5.227-0.639-9.291-2.445-13.287-5.038c-8.873-5.481-17.389-14.444-35.493-23.844c-14.422-7.009-28.491-1.665-41.382,5.684C0.011,99.305,0.007,99.307,0,99.309v72.152C0,176.729,4.272,181,9.538,181H114.46c5.266,0,9.537-4.271,9.537-9.539v-58.822C112.8,119.06,102.05,124.275,90.177,122.5"/>
		<path d="M81.987,93.791C56.646,79.759,53.154,67.407,37.133,63.453c-18.591-4.59-28.896,4.174-37.131,10.44l0.018,12.982L0.016,99.302c12.89-7.35,27.149-13.073,41.381-5.684c18.104,9.399,26.619,18.362,35.492,23.844c4.043,2.497,8.161,4.271,13.289,5.038c11.871,1.773,22.621-3.441,33.822-9.861l-0.032-11.48L124,88.812C112.053,95.752,97.5,102.381,81.987,93.791"/>
	</g>
	<path fill="#00963E" d="M111.575,4.992H12.423c-4.977,0-9.013,4.036-9.013,9.014v60.802c7.782-5.92,17.521-14.199,35.091-9.864C53.64,68.681,56.94,80.351,80.888,93.609c14.66,8.115,28.414,1.853,39.703-4.703v-74.9C120.591,9.028,116.552,4.992,111.575,4.992"/>
	<path fill="#0058A3" d="M88.628,120.735c-4.939-0.604-8.781-2.312-12.557-4.761c-8.386-5.178-16.433-13.646-33.542-22.528c-13.63-6.622-26.924-1.573-39.106,5.37l-0.014,0.007v68.171c0,4.978,4.036,9.014,9.014,9.014h99.152c4.977,0,9.014-4.036,9.014-9.014v-55.576C110.007,117.484,99.847,122.412,88.628,120.735"/>
	<path fill="#ffffff" d="M80.888,93.609C56.941,80.352,53.641,68.682,38.5,64.944c-17.569-4.335-27.308,3.944-35.091,9.864l0.017,12.266L3.424,98.816c12.182-6.944,25.657-12.352,39.107-5.37c17.107,8.882,25.154,17.349,33.541,22.528c3.82,2.359,7.711,4.035,12.558,4.761c11.217,1.676,21.377-3.253,31.961-9.318l-0.029-10.847l0.029-11.665C109.302,95.463,95.548,101.725,80.888,93.609"/>
</g>
</svg>
